<svg xmlns="http://www.w3.org/2000/svg" viewBox="0 0 900 600" width="900" height="600">
<defs>
<linearGradient id="bgm" x1="0" y1="0" x2="0.3" y2="1"><stop offset="0" stop-color="#F6E7EA"/><stop offset="1" stop-color="#E6CCD4"/></linearGradient>
<linearGradient id="tbm" x1="0" y1="0" x2="0" y2="1"><stop offset="0" stop-color="#D9B9C3"/><stop offset="1" stop-color="#C9A1AE"/></linearGradient>
<filter id="blurm" x="-50%" y="-50%" width="200%" height="200%"><feGaussianBlur stdDeviation="45.0"/></filter>
<filter id="shm" x="-50%" y="-50%" width="200%" height="200%"><feGaussianBlur stdDeviation="10.8"/></filter>
<filter id="grainm"><feTurbulence type="fractalNoise" baseFrequency="0.9" numOctaves="2" stitchTiles="stitch"/><feColorMatrix values="0 0 0 0 0.3  0 0 0 0 0.15  0 0 0 0 0.2  0 0 0 0.09 0"/></filter>
<radialGradient id="stonem" cx="0.35" cy="0.3" r="0.8"><stop offset="0" stop-color="#9C8A90"/><stop offset="0.6" stop-color="#5E4A53"/><stop offset="1" stop-color="#3B2C33"/></radialGradient>
<radialGradient id="glowm" cx="0.5" cy="0.5" r="0.5"><stop offset="0" stop-color="#FFE7B0" stop-opacity="0.9"/><stop offset="1" stop-color="#FFE7B0" stop-opacity="0"/></radialGradient>
<linearGradient id="glassm" x1="0" y1="0" x2="1" y2="0"><stop offset="0" stop-color="#45192F"/><stop offset="0.35" stop-color="#6B2E4F"/><stop offset="0.7" stop-color="#8E4A6C"/><stop offset="1" stop-color="#45192F"/></linearGradient>
<linearGradient id="creamm" x1="0" y1="0" x2="1" y2="0"><stop offset="0" stop-color="#EADAD3"/><stop offset="0.4" stop-color="#FBF4EF"/><stop offset="1" stop-color="#E2CFC8"/></linearGradient>
<linearGradient id="goldm" x1="0" y1="0" x2="1" y2="0"><stop offset="0" stop-color="#8E6526"/><stop offset="0.45" stop-color="#E2C48A"/><stop offset="1" stop-color="#8E6526"/></linearGradient>
<linearGradient id="honeym" x1="0" y1="0" x2="1" y2="1"><stop offset="0" stop-color="#F3C877"/><stop offset="1" stop-color="#C98A2E"/></linearGradient>
</defs>
<rect width="900" height="600" fill="url(#bgm)"/>
<circle cx="738.0" cy="108.0" r="288.0" fill="#FFFFFF" opacity="0.55" filter="url(#blurm)"/>
<circle cx="90.0" cy="330.0" r="225.0" fill="#D7A9B8" opacity="0.45" filter="url(#blurm)"/>
<rect y="420.0" width="900" height="180.0" fill="url(#tbm)"/>
<rect y="420.0" width="900" height="3.6" fill="#FFFFFF" opacity="0.35"/>
<ellipse cx="240" cy="499.25" rx="104.50000000000001" ry="13.3" fill="#45192F" opacity="0.3" filter="url(#shm)"/><circle cx="240" cy="409.0" r="95" fill="#FBF4EF"/><circle cx="240.95" cy="409.0" r="71.25" fill="none" stroke="#D9C3BE" stroke-width="4.8"/><circle cx="241.9" cy="409.0" r="47.5" fill="none" stroke="#D9C3BE" stroke-width="4.8"/><circle cx="242.774" cy="409.0" r="25.650000000000002" fill="none" stroke="#D9C3BE" stroke-width="4.8"/><ellipse cx="500" cy="523.5" rx="142.6" ry="18.400000000000002" fill="#45192F" opacity="0.35" filter="url(#shm)"/><ellipse cx="495.4" cy="470.6" rx="115.0" ry="55.199999999999996" fill="url(#stonem)"/><ellipse cx="460.9" cy="445.76000000000005" rx="40.25" ry="9.935999999999998" fill="#FFFFFF" opacity="0.18"/><ellipse cx="505.589" cy="389.4836" rx="93.15" ry="44.712" fill="url(#stonem)"/><ellipse cx="477.644" cy="369.3632" rx="32.6025" ry="8.048160000000001" fill="#FFFFFF" opacity="0.18"/><ellipse cx="497.148" cy="325.67240000000004" rx="71.3" ry="34.224" fill="url(#stonem)"/><ellipse cx="475.75800000000004" cy="310.27160000000003" rx="24.955" ry="6.16032" fill="#FFFFFF" opacity="0.18"/><path d="M820.0,504.0 Q827.2,386.0 780.1,277.5" stroke="#5C7A5B" stroke-width="2.4" fill="none" stroke-linecap="round"/><ellipse cx="813.0" cy="474.6" rx="27.2" ry="11.4" fill="#7F9A7C" opacity="0.92" transform="rotate(-148.0 821.0 474.6)"/><ellipse cx="831.4" cy="445.6" rx="25.9" ry="10.9" fill="#7F9A7C" opacity="0.92" transform="rotate(-52.0 820.2 445.6)"/><ellipse cx="810.6" cy="416.8" rx="24.5" ry="10.3" fill="#5C7A5B" opacity="0.92" transform="rotate(-148.0 817.8 416.8)"/><ellipse cx="823.6" cy="388.4" rx="23.1" ry="9.7" fill="#7F9A7C" opacity="0.92" transform="rotate(-52.0 813.6 388.4)"/><ellipse cx="801.4" cy="360.2" rx="21.7" ry="9.1" fill="#7F9A7C" opacity="0.92" transform="rotate(-148.0 807.8 360.2)"/><ellipse cx="809.1" cy="332.3" rx="20.4" ry="8.5" fill="#5C7A5B" opacity="0.92" transform="rotate(-52.0 800.2 332.3)"/><ellipse cx="785.5" cy="304.8" rx="19.0" ry="8.0" fill="#7F9A7C" opacity="0.92" transform="rotate(-148.0 791.0 304.8)"/><ellipse cx="700" cy="514.0" rx="49.0" ry="8.4" fill="#45192F" opacity="0.3" filter="url(#shm)"/><circle cx="700" cy="368.5" r="77.0" fill="url(#glowm)"/><rect x="665.0" y="400.0" width="70" height="110" rx="5.6000000000000005" fill="url(#creamm)"/><ellipse cx="700" cy="400.0" rx="35.0" ry="7.0" fill="#F3E6E0"/><rect x="665.0" y="463.8" width="70" height="17.6" fill="#6B2E4F" opacity="0.85"/><line x1="700" y1="400.0" x2="700" y2="391.6" stroke="#3B2C33" stroke-width="2"/><path d="M700,365.0 C708.4,379.0 707.0,391.6 700,393.0 C693.0,391.6 691.6,379.0 700,365.0Z" fill="#F7B54A"/><path d="M700,373.4 C703.5,381.8 702.8,389.5 700,390.2 C697.2,389.5 696.5,381.8 700,373.4Z" fill="#FFF3D1"/>
<rect width="900" height="600" filter="url(#grainm)"/>
</svg>